HIERARCHY
ROOT Hips
{
	OFFSET 0.00000 0.00000 0.00000
	CHANNELS 6 Xposition Yposition Zposition Zrotation Yrotation Xrotation 
	JOINT LHipJoint
	{
		OFFSET 0 0 0
		CHANNELS 3 Zrotation Yrotation Xrotation
		JOINT LeftHip
		{
			OFFSET 1.61024 -1.73873 0.75100
			CHANNELS 3 Zrotation Yrotation Xrotation
			JOINT LeftKnee
			{
				OFFSET 2.29819 -6.31424 0.00000
				CHANNELS 3 Zrotation Yrotation Xrotation
				JOINT LeftAnkle
				{
					OFFSET 2.76618 -7.60002 0.00000
					CHANNELS 3 Zrotation Yrotation Xrotation
					JOINT LeftToe
					{
						OFFSET 0.16838 -0.46263 2.02361
						CHANNELS 3 Zrotation Yrotation Xrotation
						End Site
						{
							OFFSET 0.00000 -0.00000 1.04662
						}
					}
				}
			}
		}
	}
	JOINT RHipJoint
	{
		OFFSET 0 0 0
		CHANNELS 3 Zrotation Yrotation Xrotation
		JOINT RightHip
		{
			OFFSET -1.46153 -1.73873 0.75100
			CHANNELS 3 Zrotation Yrotation Xrotation
			JOINT RightKnee
			{
				OFFSET -2.38373 -6.54924 0.00000
				CHANNELS 3 Zrotation Yrotation Xrotation
				JOINT RightAnkle
				{
					OFFSET -2.80314 -7.70157 0.00000
					CHANNELS 3 Zrotation Yrotation Xrotation
					JOINT RightToe
					{
						OFFSET -0.16142 -0.44349 2.02101
						CHANNELS 3 Zrotation Yrotation Xrotation
						End Site
						{
							OFFSET -0.00000 -0.00000 1.04381
						}
					}
				}
			}
		}
	}
	JOINT lowerback
	{
		OFFSET 0 0 0
		CHANNELS 3 Zrotation Yrotation Xrotation
		JOINT Chest
		{
			OFFSET -0.01629 1.66985 0.14750
			CHANNELS 3 Zrotation Yrotation Xrotation
			JOINT Chest2
			{
				OFFSET 0.02086 1.62378 0.20980
				CHANNELS 3 Zrotation Yrotation Xrotation
				JOINT lowerneck
				{
					OFFSET 0 0 0
					CHANNELS 3 Zrotation Yrotation Xrotation
					JOINT Neck
					{
						OFFSET -0.05690 1.78719 0.08702
						CHANNELS 3 Zrotation Yrotation Xrotation
						JOINT Head
						{
							OFFSET 0.16035 1.73871 -0.38470
							CHANNELS 3 Zrotation Yrotation Xrotation
							End Site
							{
								OFFSET 0.05645 1.80914 -0.14081
							}
						}
					}
				}
				JOINT LeftCollar
				{
					OFFSET 0 0 0
					CHANNELS 3 Zrotation Yrotation Xrotation
					JOINT LeftShoulder
					{
						OFFSET 2.83089 1.66494 -0.46008
CHANNELS 3 Zrotation Xrotation Yrotation
						JOINT LeftElbow
						{
OFFSET 0 -5.548930 -0.000000
CHANNELS 3 Zrotation Xrotation Yrotation
							JOINT LeftWrist
							{
OFFSET 0 -3.028980 -0.000000
CHANNELS 3 Zrotation Xrotation Yrotation
								JOINT lhand
								{
									OFFSET 0 0 0
CHANNELS 3 Zrotation Xrotation Yrotation
									JOINT LFingers
									{
OFFSET 0 -0.640950 -0.000000
CHANNELS 3 Zrotation Xrotation Yrotation
										End Site
										{
OFFSET 0 -0.516750 -0.000000
										}
									}
								}
								JOINT LThumb
								{
OFFSET 0 0.000000 0.000000
CHANNELS 3 Zrotation Xrotation Yrotation
									End Site
									{
OFFSET 0 -0.524640 0.524640
									}
								}
							}
						}
					}
				}
				JOINT RightCollar
				{
					OFFSET 0 0 0
					CHANNELS 3 Zrotation Yrotation Xrotation
					JOINT RightShoulder
					{
						OFFSET -2.84442 1.45761 -0.18088
CHANNELS 3 Zrotation Xrotation Yrotation
						JOINT RightElbow
						{
OFFSET 0 -5.351900 -0.000000
CHANNELS 3 Zrotation Xrotation Yrotation
							JOINT RightWrist
							{
OFFSET 0 -3.025310 -0.000000
CHANNELS 3 Zrotation Xrotation Yrotation
								JOINT rhand
								{
									OFFSET 0 0 0
CHANNELS 3 Zrotation Xrotation Yrotation
									JOINT RFingers
									{
OFFSET 0 -0.783890 -0.000000
CHANNELS 3 Zrotation Xrotation Yrotation
										End Site
										{
OFFSET 0 -0.631990 -0.000000
										}
									}
								}
								JOINT RThumb
								{
OFFSET 0 0.000000 0.000000
CHANNELS 3 Zrotation Xrotation Yrotation
									End Site
									{
OFFSET 0 -0.641640 0.641640
									}
								}
							}
						}
					}
				}
			}
		}
	}
}
MOTION
Frames: 10
Frame Time: 0.008333333333333333
-0.420000 17.795100 0.818300 -176.032000 57.263200 -158.042000 0.000000 0.000000 0.000000 -4.019500 -29.815700 -21.920000 0.580600 4.879200 13.564300 -0.114200 6.889400 -6.160600 3.303700 -11.171200 -32.859500 0.000000 0.000000 0.000000 20.864000 1.942300 -17.266200 -0.684000 -5.287800 14.731300 1.017700 -23.686700 -25.953400 -0.454500 4.324800 -11.992200 -6.854700 1.332400 -2.204900 -1.713200 2.177600 2.488100 2.177800 0.951500 3.636300 -7.191300 -12.401600 -8.879400 17.533000 -20.261300 32.433500 5.315300 -6.945000 15.858600 0.000000 -0.000000 0.000000 -17.082700 -38.227400 -102.422000 129.220800 -53.305000 93.202300 28.474500 -76.040200 -18.776100 0.000000 0.000000 0.000000 -7.125000 0.000000 0.000000 0.291900 51.123400 -0.044000 0.000000 -0.000000 0.000000 -155.811200 -82.695700 -22.221800 -54.065400 -54.509100 -29.453600 37.031400 -25.078000 -5.638100 0.000000 0.000000 0.000000 7.125000 0.000000 -0.000000 40.449600 19.755500 34.369000
-0.398174 17.807573 0.818996 -175.451666 58.878788 -157.568357 0.000000 0.000000 0.000000 -4.023823 -29.368921 -21.349087 0.575540 4.858297 13.504875 -0.168125 8.086001 -6.778835 3.168794 -10.963342 -32.156448 0.000000 0.000000 0.000000 20.756928 2.892314 -16.486020 -0.611967 -5.007024 13.928498 1.083873 -23.632365 -25.238049 -0.519095 4.617493 -12.820643 -6.907788 0.862998 -1.774995 -2.297175 1.489336 1.624026 1.555315 0.668043 2.571800 -8.146946 -12.546048 -8.062118 17.215528 -20.282522 31.939902 5.316392 -7.247289 15.484967 0.000000 0.000000 0.000000 -15.964223 -37.963259 -100.443420 130.240319 -52.898029 94.017581 28.399338 -74.846589 -19.655197 0.000000 0.000000 0.000000 -7.125000 0.000000 0.000000 0.049050 52.078694 -0.008540 0.000000 0.000000 0.000000 -174.097232 -82.988922 -41.942923 -43.217912 -49.863604 -20.867598 31.594703 -8.604832 -6.735238 0.000000 0.000000 0.000000 7.125000 0.000000 0.000000 38.149551 20.488778 29.820766
-0.377862 17.818530 0.803987 -174.950763 60.449655 -157.214805 0.000000 0.000000 0.000000 -4.234159 -28.909851 -20.664596 0.568649 4.829589 13.423139 -0.223389 9.163650 -7.395735 3.079893 -10.823179 -31.685969 0.000000 0.000000 0.000000 20.575308 3.462295 -15.730452 -0.540611 -4.710810 13.085568 1.102771 -23.309366 -24.398637 -0.567024 4.822768 -13.403652 -6.592786 1.565374 -2.406882 -3.451300 2.450897 0.388604 0.225526 1.221597 1.634647 -8.538547 -13.467759 -3.358266 18.478065 -21.498402 28.723647 5.746843 -8.214286 13.420505 0.000000 0.000000 0.000000 -16.172194 -36.318729 -102.493058 131.913474 -52.193893 95.345868 28.930602 -74.023438 -19.624703 0.000000 0.000000 0.000000 -7.125000 0.000000 0.000000 0.602999 52.145394 -0.106227 0.000000 0.000000 0.000000 -160.881547 -82.889307 -31.588857 -36.055054 -45.549076 -15.562464 24.913619 8.746692 -6.920662 0.000000 0.000000 0.000000 7.125000 0.000000 0.000000 34.978846 21.640797 24.563698
-0.348710 17.827534 0.786535 -174.613217 61.940329 -156.939937 0.000000 0.000000 0.000000 -4.498804 -28.496333 -19.851131 0.535603 4.689295 13.024464 -0.283229 10.148122 -7.849426 2.895268 -10.523308 -30.688794 0.000000 0.000000 0.000000 20.263082 4.369456 -15.048031 -0.496963 -4.519572 12.543289 1.094039 -23.084733 -24.020438 -0.607584 4.989039 -13.877430 -7.532433 1.132438 -3.243760 -3.463707 1.980250 0.056101 0.733851 0.985649 1.756912 -8.870313 -13.660484 -1.395292 18.949511 -21.456450 24.083583 5.873991 -8.745425 11.186808 0.000000 0.000000 0.000000 -16.275782 -37.135548 -101.405111 133.206748 -51.617314 96.363734 28.611313 -74.284390 -19.108773 0.000000 0.000000 0.000000 -7.125000 0.000000 0.000000 0.370610 51.515711 -0.059382 0.000000 0.000000 0.000000 -174.407669 -81.520011 -48.132827 -27.951942 -39.063617 -10.096612 -0.698722 24.875563 -10.226137 0.000000 0.000000 0.000000 7.125000 0.000000 0.000000 18.485622 19.951399 11.685877
-0.340057 17.829518 0.772314 -174.597845 63.494923 -157.057539 0.000000 0.000000 0.000000 -5.063510 -27.795794 -19.380220 0.541883 4.716124 13.100714 -0.304075 10.615622 -8.458713 2.784027 -10.336989 -30.074940 0.000000 0.000000 0.000000 19.792196 4.892921 -14.926254 -0.512276 -4.587623 12.735969 1.079465 -22.637452 -23.230564 -0.704971 5.366147 -14.955930 -7.877348 0.836088 -3.544818 -3.734780 1.626631 -0.359870 0.631425 0.832290 1.518697 -9.868594 -13.710310 -0.811747 20.357923 -21.462973 20.680364 6.457429 -9.046906 10.110047 0.000000 0.000000 0.000000 -16.283090 -37.118726 -100.488829 134.461322 -51.029571 97.343149 28.996287 -74.367245 -18.864062 0.000000 0.000000 0.000000 -7.125000 0.000000 0.000000 0.807731 51.315743 -0.125625 0.000000 0.000000 0.000000 -184.841713 -80.337238 -68.551124 -21.095620 -31.939507 -6.100638 -35.663236 28.932272 -20.233069 0.000000 0.000000 0.000000 7.125000 0.000000 0.000000 -4.522513 5.641757 -4.069167
-0.329562 17.826126 0.761932 -174.620257 64.355744 -157.028202 0.000000 0.000000 0.000000 -5.335537 -27.315407 -19.517720 0.577200 4.865070 13.524066 -0.298054 10.686474 -8.887632 2.686826 -10.169940 -29.528875 0.000000 0.000000 0.000000 19.502391 5.044927 -15.244535 -0.543263 -4.722307 13.118218 1.032872 -22.188364 -22.778262 -0.789617 5.672049 -15.835894 -8.049552 0.526172 -3.919477 -3.745359 1.231802 -0.926704 0.699091 0.662712 1.164799 -9.803957 -13.748647 0.478789 20.644407 -21.170865 17.291639 6.590172 -9.245323 8.642674 0.000000 0.000000 0.000000 -16.547379 -36.528724 -99.486266 137.089650 -49.702432 99.367547 29.615495 -72.379389 -19.102649 0.000000 0.000000 0.000000 -7.125000 0.000000 0.000000 1.402095 51.695748 -0.231475 0.000000 0.000000 0.000000 -190.188297 -78.025341 -74.924999 -20.978887 -31.803657 -6.038843 -18.322183 32.500740 -13.494341 0.000000 0.000000 0.000000 7.125000 0.000000 0.000000 6.226062 15.828877 4.285995
-0.319944 17.817723 0.760121 -175.020381 64.631370 -157.796028 0.000000 0.000000 0.000000 -5.915152 -26.789260 -19.089031 0.582936 4.888798 13.591641 -0.265877 10.285461 -8.898693 2.668489 -10.137945 -29.424670 0.000000 0.000000 0.000000 19.288836 4.772580 -15.264067 -0.596694 -4.945141 13.752182 0.914767 -21.670984 -22.975037 -0.801763 5.714913 -15.959414 -8.223293 -0.110074 -4.376821 -3.456163 0.429790 -1.019693 1.058209 0.256175 1.377585 -11.221785 -13.051451 0.053241 22.393461 -20.265363 15.845943 7.502842 -8.866828 8.442494 0.000000 0.000000 0.000000 -17.528457 -38.082875 -98.315757 137.855756 -49.290211 99.950179 30.926335 -70.627396 -19.241551 0.000000 0.000000 0.000000 -7.125000 0.000000 0.000000 2.737778 52.100851 -0.479010 0.000000 0.000000 0.000000 -199.190926 -75.264334 -83.370278 -21.437962 -32.335994 -6.282599 7.612423 28.956756 -3.149147 0.000000 0.000000 0.000000 7.125000 0.000000 0.000000 25.356515 26.430245 12.627475
-0.309198 17.816057 0.776048 -175.164130 64.754741 -158.241083 0.000000 0.000000 0.000000 -6.151533 -26.570657 -18.705397 0.583171 4.889722 13.594414 -0.253942 10.195366 -9.062830 2.648632 -10.103302 -29.311879 0.000000 0.000000 0.000000 19.255474 4.646670 -15.234348 -0.632666 -5.089343 14.163596 0.866022 -21.433009 -23.013642 -0.794739 5.690468 -15.888904 -8.016528 -0.012325 -4.381330 -3.616821 0.525666 -1.605589 0.781108 0.343305 0.768401 -10.654330 -12.793438 0.214123 23.406265 -19.807112 14.333152 7.822491 -8.643711 7.884771 0.000000 0.000000 0.000000 -17.865683 -39.211007 -98.275993 137.355275 -49.561037 99.570058 30.669941 -70.167030 -19.384523 0.000000 0.000000 0.000000 -7.125000 0.000000 0.000000 2.449039 52.211662 -0.435010 0.000000 0.000000 0.000000 -198.322030 -74.326655 -84.951927 -21.985973 -32.961129 -6.578235 25.517925 15.602921 -2.733607 0.000000 0.000000 0.000000 7.125000 0.000000 0.000000 36.550495 25.277163 22.165094
-0.303300 17.812950 0.795558 -175.100860 64.520767 -158.398361 0.000000 0.000000 0.000000 -6.101087 -26.669517 -18.563069 0.595220 4.938978 13.734640 -0.238022 10.055738 -9.225758 2.524894 -9.882952 -28.598590 0.000000 0.000000 0.000000 19.475399 4.094843 -15.108106 -0.630778 -5.081850 14.142142 0.841281 -21.222592 -22.858156 -0.817169 5.767511 -16.111459 -7.655503 0.040905 -4.826919 -3.433062 0.600855 -1.948170 0.776529 0.389965 0.659017 -10.981114 -12.656947 0.913137 25.030906 -19.453204 12.112342 8.504277 -8.589905 7.199904 0.000000 0.000000 0.000000 -18.000311 -40.894905 -98.525526 137.403479 -49.535142 99.606736 31.178450 -69.358221 -19.915193 0.000000 0.000000 0.000000 -7.125000 0.000000 0.000000 2.901459 52.907571 -0.565222 0.000000 0.000000 0.000000 -198.724659 -73.133886 -90.909369 -20.383164 -31.100742 -5.728222 37.387025 -8.826517 -1.855505 0.000000 0.000000 0.000000 7.125000 0.000000 0.000000 41.833232 23.111816 31.610524
-0.302569 17.803562 0.807709 -175.219853 64.018118 -158.800447 0.000000 0.000000 0.000000 -6.207714 -26.527026 -18.593342 0.612263 5.007985 13.931356 -0.210709 9.584934 -8.964279 2.655136 -10.114615 -29.348776 0.000000 0.000000 0.000000 19.642197 3.751050 -14.751477 -0.626500 -5.064856 14.093573 0.792926 -21.187563 -23.294542 -0.761382 5.572539 -15.549060 -7.259957 0.082020 -5.396417 -3.074754 0.665151 -2.227547 0.933928 0.423177 0.683703 -11.049450 -12.429571 1.590617 26.903078 -18.875921 9.719784 9.268982 -8.418258 6.436706 0.000000 0.000000 0.000000 -17.627490 -42.437592 -98.353348 137.336162 -49.571269 99.555497 32.190955 -67.484861 -21.164984 0.000000 0.000000 0.000000 -7.125000 0.000000 0.000000 3.794848 54.524149 -0.889380 0.000000 0.000000 0.000000 -199.021767 -72.095941 -99.607912 -18.053659 -28.225501 -4.574724 40.657614 -24.691875 -5.359233 0.000000 0.000000 0.000000 7.125000 0.000000 0.000000 41.478322 18.340973 38.398648
